<svg width="20" height="20" viewBox="0 0 20 20" fill="none" xmlns="http://www.w3.org/2000/svg">
<path fill-rule="evenodd" clip-rule="evenodd" d="M0.756477 19.3894L4.54126 18.3966L4.90641 18.6133C6.44176 19.5244 8.20172 20.0065 9.99613 20.0072H10.0002C15.5119 20.0072 19.9978 15.5212 20 10.0072C20.001 7.3352 18.9619 4.8228 17.0739 2.9326C15.1859 1.04239 12.6751 0.000926075 10.0041 0C4.48819 0 0.00219054 4.4856 8.48053e-07 9.99912C-0.000772886 11.8887 0.527914 13.7288 1.52893 15.3209L1.76669 15.6993L0.756477 19.3894ZM15.6502 12.5977C15.8599 12.699 16.0014 12.7674 16.0619 12.8683C16.137 12.9937 16.137 13.5956 15.8866 14.2979C15.636 15.0001 14.4351 15.641 13.8574 15.7273C13.3395 15.8047 12.6841 15.837 11.964 15.6082C11.5273 15.4696 10.9674 15.2847 10.2502 14.9749C7.43192 13.758 5.52736 11.0265 5.16739 10.5102C5.14217 10.4741 5.12454 10.4488 5.1147 10.4356L5.11227 10.4324C4.95317 10.2201 3.88718 8.79784 3.88718 7.32583C3.88718 5.94109 4.56739 5.21527 4.88049 4.88118C4.90194 4.85829 4.92167 4.83724 4.93934 4.81794C5.21489 4.51697 5.54059 4.44173 5.74099 4.44173C5.94138 4.44173 6.14201 4.44358 6.31716 4.45238C6.33877 4.45347 6.36125 4.45333 6.3845 4.4532C6.55968 4.45217 6.77809 4.45089 6.99354 4.96843C7.07643 5.1676 7.19771 5.46286 7.32563 5.77428C7.58431 6.40406 7.87013 7.09988 7.92041 7.20058C7.99559 7.35106 8.04567 7.52655 7.94547 7.72727C7.93043 7.75737 7.91652 7.78577 7.90323 7.8129C7.82797 7.96656 7.7726 8.07959 7.64486 8.22873C7.59463 8.28738 7.54272 8.35061 7.4908 8.41383C7.38738 8.53978 7.28397 8.66572 7.19392 8.75543C7.04342 8.90534 6.88676 9.06797 7.06212 9.36894C7.23748 9.66991 7.84081 10.6543 8.7345 11.4515C9.69518 12.3084 10.5301 12.6705 10.9534 12.8541C11.036 12.89 11.1029 12.919 11.1521 12.9436C11.4526 13.0941 11.6279 13.0689 11.8033 12.8683C11.9787 12.6677 12.5548 11.9905 12.7552 11.6896C12.9556 11.3887 13.156 11.4388 13.4315 11.5391C13.7072 11.6395 15.1852 12.3667 15.4858 12.5172C15.5445 12.5466 15.5993 12.5731 15.6502 12.5977Z" fill="black"/>
</svg>
